<?xml version="1.0" encoding="UTF-8"?><svg xmlns="http://www.w3.org/2000/svg" viewBox="0 0 100 100" width="100" height="100"><rect width="100" height="100" fill="none" /><g stroke="#ffffff" fill="none"><!-- Borders --><rect x="5" y="5" width="90" height="90" stroke-width="4" /><rect x="12" y="12" width="76" height="76" stroke-width="3" /><!-- 'I' shape (rectangle) --><rect x="28" y="28" width="5" height="24" fill="#ffffff" stroke="none" /><!-- '/' shape --><line x1="35" y1="72" x2="65" y2="32" stroke-width="5" /><!-- Globe --><g transform="translate(75, 65)"><circle cx="0" cy="0" r="10" stroke-width="2" /><!-- Grid Lines --><g stroke-width="1"><line x1="0" y1="-10" x2="0" y2="10" /><!-- Center Vertical (Longitude) --><line x1="-10" y1="0" x2="10" y2="0" /><!-- Center Horizontal (Equator) --><line x1="-5" y1="-8.66" x2="-5" y2="8.66" /><!-- Left Vertical (Longitude) --><line x1="5" y1="-8.66" x2="5" y2="8.66" /><!-- Right Vertical (Longitude) --><path d="M -8.66 -5 A 10 10 0 0 1 8.66 -5" /><!-- Top Arc (Latitude) --><path d="M -8.66 5 A 10 10 0 0 0 8.66 5" /><!-- Bottom Arc (Latitude) --></g></g><!-- Cursor --><path d="M 76 74 L 86 84 L 82 85 L 80 79 Z" fill="#ffffff" stroke="none" /></g></svg>